<mxfile host="app.diagrams.net" modified="2024-04-02T08:59:47.544Z" agent="Mozilla/5.0 (Windows NT 10.0; Win64; x64) AppleWebKit/537.36 (KHTML, like Gecko) Chrome/123.0.0.0 Safari/537.36" etag="2L4awg6DI_BJmOJ57Yde" version="24.2.1" type="device">
  <diagram name="第 1 页" id="uh5Pn6_8L2ThO95qAek1">
    <mxGraphModel dx="1050" dy="530" grid="0" gridSize="10" guides="1" tooltips="1" connect="1" arrows="1" fold="1" page="1" pageScale="1" pageWidth="827" pageHeight="1169" math="0" shadow="0">
      <root>
        <mxCell id="0" />
        <mxCell id="1" parent="0" />
        <mxCell id="vouIaNEnioRq_0ik7gSa-58" value="" style="rounded=1;whiteSpace=wrap;html=1;absoluteArcSize=1;arcSize=14;strokeWidth=2;dashed=1;" vertex="1" parent="1">
          <mxGeometry x="449" y="329" width="318" height="106" as="geometry" />
        </mxCell>
        <mxCell id="vouIaNEnioRq_0ik7gSa-27" value="" style="rounded=1;whiteSpace=wrap;html=1;absoluteArcSize=1;arcSize=14;strokeWidth=2;dashed=1;" vertex="1" parent="1">
          <mxGeometry x="449" y="442.25" width="318" height="92.5" as="geometry" />
        </mxCell>
        <mxCell id="vouIaNEnioRq_0ik7gSa-9" value="" style="rounded=1;whiteSpace=wrap;html=1;absoluteArcSize=1;arcSize=14;strokeWidth=2;strokeColor=#33a8ff;" vertex="1" parent="1">
          <mxGeometry x="212" y="602" width="558" height="187" as="geometry" />
        </mxCell>
        <mxCell id="vouIaNEnioRq_0ik7gSa-2" value="" style="rounded=1;whiteSpace=wrap;html=1;absoluteArcSize=1;arcSize=14;strokeWidth=2;strokeColor=#33a8ff;" vertex="1" parent="1">
          <mxGeometry x="44" y="331" width="159" height="458" as="geometry" />
        </mxCell>
        <object label="&lt;b&gt;Salesforce&lt;/b&gt;" id="vouIaNEnioRq_0ik7gSa-1">
          <mxCell style="ellipse;shape=cloud;whiteSpace=wrap;html=1;fillColor=#1ba1e2;strokeColor=#006EAF;fontColor=#ffffff;" vertex="1" parent="1">
            <mxGeometry x="28" y="292" width="120" height="70" as="geometry" />
          </mxCell>
        </object>
        <mxCell id="vouIaNEnioRq_0ik7gSa-7" value="業務オブジェクト" style="text;html=1;align=center;verticalAlign=middle;whiteSpace=wrap;rounded=0;fontStyle=1" vertex="1" parent="1">
          <mxGeometry x="65" y="739" width="131" height="30" as="geometry" />
        </mxCell>
        <object label="&lt;b&gt;Salesforce&lt;/b&gt;" id="vouIaNEnioRq_0ik7gSa-8">
          <mxCell style="ellipse;shape=cloud;whiteSpace=wrap;html=1;fillColor=#1ba1e2;fontColor=#ffffff;strokeColor=#006EAF;" vertex="1" parent="1">
            <mxGeometry x="232" y="558" width="120" height="70" as="geometry" />
          </mxCell>
        </object>
        <mxCell id="vouIaNEnioRq_0ik7gSa-10" value="&lt;b&gt;EC Report Designer&lt;/b&gt;" style="text;html=1;align=center;verticalAlign=middle;whiteSpace=wrap;rounded=0;fillColor=default;" vertex="1" parent="1">
          <mxGeometry x="348" y="587" width="135" height="30" as="geometry" />
        </mxCell>
        <mxCell id="vouIaNEnioRq_0ik7gSa-11" value="" style="sketch=0;shadow=0;dashed=0;html=1;strokeColor=none;labelPosition=center;verticalLabelPosition=bottom;verticalAlign=top;outlineConnect=0;align=center;shape=mxgraph.office.databases.database_mini_3;fillColor=#7FBA42;" vertex="1" parent="1">
          <mxGeometry x="713" y="677" width="35" height="57" as="geometry" />
        </mxCell>
        <mxCell id="vouIaNEnioRq_0ik7gSa-12" value="テンプレート" style="text;html=1;align=center;verticalAlign=middle;whiteSpace=wrap;rounded=0;fontStyle=1" vertex="1" parent="1">
          <mxGeometry x="400" y="672" width="82" height="30" as="geometry" />
        </mxCell>
        <mxCell id="vouIaNEnioRq_0ik7gSa-13" value="印刷サービス設定" style="text;html=1;align=center;verticalAlign=middle;whiteSpace=wrap;rounded=0;fontStyle=1" vertex="1" parent="1">
          <mxGeometry x="647.5" y="731" width="142" height="30" as="geometry" />
        </mxCell>
        <mxCell id="vouIaNEnioRq_0ik7gSa-14" value="" style="sketch=0;shadow=0;dashed=0;html=1;strokeColor=none;fillColor=#505050;labelPosition=center;verticalLabelPosition=bottom;verticalAlign=top;outlineConnect=0;align=center;shape=mxgraph.office.databases.database_availability_group;" vertex="1" parent="1">
          <mxGeometry x="74" y="646" width="97" height="84" as="geometry" />
        </mxCell>
        <mxCell id="vouIaNEnioRq_0ik7gSa-15" value="" style="rounded=1;whiteSpace=wrap;html=1;absoluteArcSize=1;arcSize=14;strokeWidth=2;strokeColor=#dd7c22;" vertex="1" parent="1">
          <mxGeometry x="212" y="330" width="219" height="209" as="geometry" />
        </mxCell>
        <mxCell id="vouIaNEnioRq_0ik7gSa-16" value="EC Print Trans" style="text;html=1;align=center;verticalAlign=middle;whiteSpace=wrap;rounded=0;fontStyle=1" vertex="1" parent="1">
          <mxGeometry x="272" y="456.5" width="114" height="30" as="geometry" />
        </mxCell>
        <mxCell id="vouIaNEnioRq_0ik7gSa-20" value="" style="dashed=0;outlineConnect=0;html=1;align=center;labelPosition=center;verticalLabelPosition=bottom;verticalAlign=top;shape=mxgraph.webicons.adobe_pdf;fillColor=#F40C0C;gradientColor=#610603" vertex="1" parent="1">
          <mxGeometry x="483" y="462" width="35" height="32" as="geometry" />
        </mxCell>
        <mxCell id="vouIaNEnioRq_0ik7gSa-21" value="" style="dashed=0;outlineConnect=0;html=1;align=center;labelPosition=center;verticalLabelPosition=bottom;verticalAlign=top;shape=mxgraph.webicons.gmail;gradientColor=#DFDEDE" vertex="1" parent="1">
          <mxGeometry x="551" y="452" width="47" height="46" as="geometry" />
        </mxCell>
        <mxCell id="vouIaNEnioRq_0ik7gSa-22" value="" style="dashed=0;outlineConnect=0;html=1;align=center;labelPosition=center;verticalLabelPosition=bottom;verticalAlign=top;shape=mxgraph.webicons.json;gradientColor=#DFDEDE" vertex="1" parent="1">
          <mxGeometry x="695" y="454" width="45" height="46" as="geometry" />
        </mxCell>
        <mxCell id="vouIaNEnioRq_0ik7gSa-23" value="" style="image;html=1;image=img/lib/clip_art/computers/Printer_Commercial_128x128.png" vertex="1" parent="1">
          <mxGeometry x="673" y="350" width="40" height="64" as="geometry" />
        </mxCell>
        <mxCell id="vouIaNEnioRq_0ik7gSa-25" value="" style="verticalLabelPosition=bottom;verticalAlign=top;html=1;shape=mxgraph.basic.layered_rect;dx=10;outlineConnect=0;whiteSpace=wrap;strokeColor=#e68619;" vertex="1" parent="1">
          <mxGeometry x="476" y="333" width="128" height="92" as="geometry" />
        </mxCell>
        <mxCell id="vouIaNEnioRq_0ik7gSa-26" value="EC Print Agent" style="text;html=1;align=center;verticalAlign=middle;whiteSpace=wrap;rounded=0;fontStyle=1" vertex="1" parent="1">
          <mxGeometry x="479" y="382" width="114" height="30" as="geometry" />
        </mxCell>
        <mxCell id="vouIaNEnioRq_0ik7gSa-32" value="" style="verticalLabelPosition=bottom;aspect=fixed;html=1;shape=mxgraph.salesforce.web;" vertex="1" parent="1">
          <mxGeometry x="84.15" y="506" width="87.85" height="69.4" as="geometry" />
        </mxCell>
        <mxCell id="vouIaNEnioRq_0ik7gSa-34" value="" style="strokeWidth=1;shadow=0;dashed=0;align=center;html=1;shape=mxgraph.mockup.containers.rrect;rSize=0;strokeColor=#666666;fontColor=#666666;fontSize=17;verticalAlign=top;whiteSpace=wrap;fillColor=#ffffff;spacingTop=32;fontStyle=1;container=0;" vertex="1" parent="1">
          <mxGeometry x="509" y="645" width="138" height="117" as="geometry" />
        </mxCell>
        <mxCell id="vouIaNEnioRq_0ik7gSa-41" value="" style="endArrow=classic;startArrow=classic;html=1;rounded=0;" edge="1" parent="1">
          <mxGeometry width="50" height="50" relative="1" as="geometry">
            <mxPoint x="507" y="660" as="sourcePoint" />
            <mxPoint x="463" y="660" as="targetPoint" />
          </mxGeometry>
        </mxCell>
        <mxCell id="vouIaNEnioRq_0ik7gSa-42" value="" style="endArrow=classic;startArrow=classic;html=1;rounded=0;" edge="1" parent="1">
          <mxGeometry width="50" height="50" relative="1" as="geometry">
            <mxPoint x="648" y="708" as="sourcePoint" />
            <mxPoint x="711" y="708" as="targetPoint" />
          </mxGeometry>
        </mxCell>
        <mxCell id="vouIaNEnioRq_0ik7gSa-44" value="" style="shape=singleArrow;direction=north;whiteSpace=wrap;html=1;fillColor=#dae8fc;strokeColor=#6c8ebf;" vertex="1" parent="1">
          <mxGeometry x="493" y="539" width="16" height="56" as="geometry" />
        </mxCell>
        <mxCell id="vouIaNEnioRq_0ik7gSa-46" value="" style="shape=singleArrow;direction=north;whiteSpace=wrap;html=1;fillColor=#dae8fc;strokeColor=#6c8ebf;" vertex="1" parent="1">
          <mxGeometry x="567" y="539" width="16" height="56" as="geometry" />
        </mxCell>
        <mxCell id="vouIaNEnioRq_0ik7gSa-47" value="" style="shape=singleArrow;direction=north;whiteSpace=wrap;html=1;fillColor=#dae8fc;strokeColor=#6c8ebf;" vertex="1" parent="1">
          <mxGeometry x="644" y="538" width="16" height="56" as="geometry" />
        </mxCell>
        <mxCell id="vouIaNEnioRq_0ik7gSa-53" value="" style="shape=singleArrow;whiteSpace=wrap;html=1;fillColor=#60a917;fontColor=#ffffff;strokeColor=#2D7600;" vertex="1" parent="1">
          <mxGeometry x="440" y="370" width="35" height="15" as="geometry" />
        </mxCell>
        <mxCell id="vouIaNEnioRq_0ik7gSa-54" value="" style="shape=singleArrow;whiteSpace=wrap;html=1;strokeColor=#2D7600;fillColor=#60a917;fontColor=#ffffff;" vertex="1" parent="1">
          <mxGeometry x="173" y="717" width="53" height="15" as="geometry" />
        </mxCell>
        <mxCell id="vouIaNEnioRq_0ik7gSa-56" value="" style="outlineConnect=0;dashed=0;verticalLabelPosition=bottom;verticalAlign=top;align=center;html=1;shape=mxgraph.aws3.quicksight;fillColor=#00B7F4;gradientColor=none;" vertex="1" parent="1">
          <mxGeometry x="627" y="456.5" width="43" height="42" as="geometry" />
        </mxCell>
        <mxCell id="vouIaNEnioRq_0ik7gSa-57" value="" style="shape=singleArrow;direction=north;whiteSpace=wrap;html=1;fillColor=#dae8fc;strokeColor=#6c8ebf;" vertex="1" parent="1">
          <mxGeometry x="712" y="538" width="16" height="56" as="geometry" />
        </mxCell>
        <mxCell id="vouIaNEnioRq_0ik7gSa-59" value="" style="endArrow=classic;startArrow=classic;html=1;rounded=0;fillColor=#60a917;strokeColor=#2D7600;" edge="1" parent="1">
          <mxGeometry width="50" height="50" relative="1" as="geometry">
            <mxPoint x="615" y="385" as="sourcePoint" />
            <mxPoint x="662" y="385" as="targetPoint" />
          </mxGeometry>
        </mxCell>
        <mxCell id="vouIaNEnioRq_0ik7gSa-60" value="PDF" style="text;html=1;align=center;verticalAlign=middle;whiteSpace=wrap;rounded=0;fontStyle=1" vertex="1" parent="1">
          <mxGeometry x="470.5" y="491" width="60" height="30" as="geometry" />
        </mxCell>
        <mxCell id="vouIaNEnioRq_0ik7gSa-62" value="&lt;b&gt;E-Mail&lt;/b&gt;" style="text;html=1;align=center;verticalAlign=middle;whiteSpace=wrap;rounded=0;" vertex="1" parent="1">
          <mxGeometry x="544" y="491.5" width="60" height="30" as="geometry" />
        </mxCell>
        <mxCell id="vouIaNEnioRq_0ik7gSa-63" value="&lt;b&gt;Image&lt;/b&gt;" style="text;html=1;align=center;verticalAlign=middle;whiteSpace=wrap;rounded=0;" vertex="1" parent="1">
          <mxGeometry x="617.5" y="493" width="60" height="30" as="geometry" />
        </mxCell>
        <mxCell id="vouIaNEnioRq_0ik7gSa-64" value="&lt;b&gt;Json&lt;/b&gt;" style="text;html=1;align=center;verticalAlign=middle;whiteSpace=wrap;rounded=0;" vertex="1" parent="1">
          <mxGeometry x="690" y="494" width="60" height="30" as="geometry" />
        </mxCell>
        <mxCell id="vouIaNEnioRq_0ik7gSa-65" value="&lt;span style=&quot;font-size: 11pt; font-family: Calibri;&quot;&gt;Direct Print&lt;/span&gt;" style="text;html=1;align=center;verticalAlign=middle;whiteSpace=wrap;rounded=0;fontStyle=1" vertex="1" parent="1">
          <mxGeometry x="628" y="402" width="126" height="30" as="geometry" />
        </mxCell>
        <mxCell id="vouIaNEnioRq_0ik7gSa-66" value="" style="shape=flexArrow;endArrow=classic;startArrow=classic;html=1;rounded=0;width=6;exitX=0.62;exitY=1.011;exitDx=0;exitDy=0;exitPerimeter=0;endSize=3;startSize=3;targetPerimeterSpacing=1;sourcePerimeterSpacing=1;fillColor=#60a917;strokeColor=#2D7600;" edge="1" parent="1">
          <mxGeometry width="100" height="100" relative="1" as="geometry">
            <mxPoint x="371.3800000000001" y="539.2549999999999" as="sourcePoint" />
            <mxPoint x="371" y="595" as="targetPoint" />
          </mxGeometry>
        </mxCell>
        <mxCell id="vouIaNEnioRq_0ik7gSa-67" value="" style="sketch=0;shadow=0;dashed=0;html=1;strokeColor=none;labelPosition=center;verticalLabelPosition=bottom;verticalAlign=top;outlineConnect=0;align=center;shape=mxgraph.office.databases.database_mini_3;fillColor=#7FBA42;" vertex="1" parent="1">
          <mxGeometry x="419" y="618" width="42" height="59" as="geometry" />
        </mxCell>
        <mxCell id="vouIaNEnioRq_0ik7gSa-68" value="カスタマイズ開発" style="text;html=1;align=center;verticalAlign=middle;whiteSpace=wrap;rounded=0;fontStyle=1" vertex="1" parent="1">
          <mxGeometry x="386" y="736.5" width="120" height="30" as="geometry" />
        </mxCell>
        <mxCell id="vouIaNEnioRq_0ik7gSa-69" value="" style="endArrow=classic;startArrow=none;html=1;rounded=0;startFill=0;" edge="1" parent="1">
          <mxGeometry width="50" height="50" relative="1" as="geometry">
            <mxPoint x="464" y="725" as="sourcePoint" />
            <mxPoint x="506" y="725" as="targetPoint" />
          </mxGeometry>
        </mxCell>
        <mxCell id="vouIaNEnioRq_0ik7gSa-74" value="" style="endArrow=classic;html=1;rounded=0;entryX=0.494;entryY=0.706;entryDx=0;entryDy=0;entryPerimeter=0;" edge="1" parent="1">
          <mxGeometry width="50" height="50" relative="1" as="geometry">
            <mxPoint x="129" y="584" as="sourcePoint" />
            <mxPoint x="129" y="649.1120000000001" as="targetPoint" />
          </mxGeometry>
        </mxCell>
        <mxCell id="vouIaNEnioRq_0ik7gSa-75" value="" style="outlineConnect=0;dashed=0;verticalLabelPosition=bottom;verticalAlign=top;align=center;html=1;shape=mxgraph.aws3.worker;fillColor=#D9A741;gradientColor=none;" vertex="1" parent="1">
          <mxGeometry x="518" y="344" width="39" height="38" as="geometry" />
        </mxCell>
        <mxCell id="vouIaNEnioRq_0ik7gSa-76" value="" style="outlineConnect=0;dashed=0;verticalLabelPosition=bottom;verticalAlign=top;align=center;html=1;shape=mxgraph.aws3.vpc_peering;fillColor=#F58534;gradientColor=none;" vertex="1" parent="1">
          <mxGeometry x="291.5" y="385" width="69" height="72" as="geometry" />
        </mxCell>
        <mxCell id="vouIaNEnioRq_0ik7gSa-80" value="" style="endArrow=classic;startArrow=none;html=1;rounded=0;startFill=0;" edge="1" parent="1">
          <mxGeometry width="50" height="50" relative="1" as="geometry">
            <mxPoint x="375" y="724" as="sourcePoint" />
            <mxPoint x="419" y="724" as="targetPoint" />
          </mxGeometry>
        </mxCell>
        <mxCell id="vouIaNEnioRq_0ik7gSa-81" value="データ抽出ロジック" style="shape=process;whiteSpace=wrap;html=1;backgroundOutline=1;fontStyle=1;strokeColor=#e88617;" vertex="1" parent="1">
          <mxGeometry x="228" y="694.5" width="145" height="66.5" as="geometry" />
        </mxCell>
        <mxCell id="vouIaNEnioRq_0ik7gSa-82" value="" style="dashed=0;outlineConnect=0;html=1;align=center;labelPosition=center;verticalLabelPosition=bottom;verticalAlign=top;shape=mxgraph.webicons.json;gradientColor=#DFDEDE" vertex="1" parent="1">
          <mxGeometry x="418" y="696.5" width="45" height="46" as="geometry" />
        </mxCell>
        <mxCell id="vouIaNEnioRq_0ik7gSa-84" value="&lt;b&gt;（カスタマイズ）&lt;/b&gt;" style="text;html=1;align=center;verticalAlign=middle;whiteSpace=wrap;rounded=0;" vertex="1" parent="1">
          <mxGeometry x="242" y="724" width="106" height="30" as="geometry" />
        </mxCell>
        <mxCell id="vouIaNEnioRq_0ik7gSa-86" value="" style="shape=singleArrow;whiteSpace=wrap;html=1;fillColor=#60a917;fontColor=#ffffff;strokeColor=#2D7600;direction=west;" vertex="1" parent="1">
          <mxGeometry x="432" y="370" width="35" height="15" as="geometry" />
        </mxCell>
        <mxCell id="vouIaNEnioRq_0ik7gSa-35" value="&lt;b&gt;LWC&lt;/b&gt;" style="strokeWidth=1;shadow=0;dashed=0;align=center;html=1;shape=mxgraph.mockup.containers.rrect;rSize=0;fontSize=17;fontColor=#666666;strokeColor=#666666;align=left;spacingLeft=8;fillColor=none;resizeWidth=1;whiteSpace=wrap;" vertex="1" parent="1">
          <mxGeometry x="509" y="645" width="138" height="30" as="geometry">
            <mxPoint as="offset" />
          </mxGeometry>
        </mxCell>
        <mxCell id="vouIaNEnioRq_0ik7gSa-36" value="" style="shape=ellipse;strokeColor=#008cff;resizable=0;fillColor=none;html=1;" vertex="1" parent="vouIaNEnioRq_0ik7gSa-35">
          <mxGeometry x="1" y="0.5" width="20" height="20" relative="1" as="geometry">
            <mxPoint x="-25" y="-10" as="offset" />
          </mxGeometry>
        </mxCell>
        <mxCell id="vouIaNEnioRq_0ik7gSa-33" value="" style="verticalLabelPosition=bottom;aspect=fixed;html=1;shape=mxgraph.salesforce.platform2;container=0;" vertex="1" collapsed="1" parent="vouIaNEnioRq_0ik7gSa-35">
          <mxGeometry x="111.4207602146928" y="5" width="23.449853608351088" height="20.637934968845844" as="geometry">
            <mxRectangle x="591.005" y="837" width="15.527777777777777" height="15.527777777777777" as="alternateBounds" />
          </mxGeometry>
        </mxCell>
        <mxCell id="vouIaNEnioRq_0ik7gSa-55" value="帳票設計・印刷" style="text;html=1;align=center;verticalAlign=middle;whiteSpace=wrap;rounded=0;fontStyle=1" vertex="1" parent="1">
          <mxGeometry x="525.9072847682119" y="694.4285714285714" width="104.18543046357615" height="38.57142857142858" as="geometry" />
        </mxCell>
      </root>
    </mxGraphModel>
  </diagram>
</mxfile>
